<svg width="100" height="60" viewBox="0 0 100 60" fill="none" xmlns="http://www.w3.org/2000/svg">
<path d="M67.1235 8.87194C63.8071 13.7561 61.1003 17.7987 61.1003 17.8353C61.1003 17.8902 62.0324 17.9268 63.1618 17.9268H65.2054L65.9583 16.9207L66.7112 15.8963L76.2301 15.9512C85.2112 16.0061 85.7849 16.0244 86.4481 16.3536C86.9501 16.6097 87.2369 16.939 87.4879 17.5061C87.8823 18.4207 87.8106 19.1158 87.2369 19.8658C86.4481 20.8902 86.9859 20.8536 69.8842 20.8536H54.109V10.5183V0.182938H51.9578H49.8066L49.8425 12.6585L49.8963 25.1524L67.6434 25.2073C79.2955 25.2255 85.8028 25.189 86.6095 25.0609C88.7965 24.7134 90.4099 23.5426 91.2524 21.6768C91.6109 20.8719 91.6647 20.4695 91.6647 18.4756C91.6647 16.4817 91.6109 16.0792 91.2524 15.2926C90.6608 13.9939 90.0693 13.2439 89.1371 12.6951C87.5954 11.7622 86.9501 11.7073 78.0945 11.7073C73.577 11.7073 69.8842 11.6524 69.8842 11.561C69.8842 11.4878 70.4399 10.6829 71.1032 9.78657C73.0751 7.07926 77.3057 1.22562 77.7539 0.585375L78.1482 1.14441e-05H75.6565H73.1468L67.1235 8.87194Z" fill="#000"/>
<path d="M44.6969 7.18946C43.8364 8.36019 43.7109 8.65287 43.7109 9.36628C43.7109 9.96994 43.8006 10.2443 43.9978 10.3175C44.3921 10.4821 47.5293 10.4455 47.7444 10.2809C47.8519 10.2077 47.9236 9.80531 47.9236 9.36628V8.59799H46.8122C45.3781 8.59799 45.0913 8.48824 45.3422 8.03092C45.4856 7.73824 45.7187 7.68336 46.6509 7.68336C47.2604 7.68336 47.8161 7.64678 47.8519 7.61019C47.8878 7.55531 47.9057 7.15287 47.8699 6.69556L47.7982 5.8541H46.7405H45.6828L44.6969 7.18946Z" fill="#000"/>
<path d="M13.3084 8.79844C11.8025 9.23746 11.1213 11.2314 11.9459 12.6582C12.2507 13.1887 13.4518 13.9021 14.0433 13.9021C14.6528 13.9021 15.836 13.1887 16.1586 12.6399C16.3379 12.3289 16.4634 11.7253 16.4634 11.1765C16.4634 10.4082 16.3738 10.1521 15.9077 9.62161C15.4595 9.09112 14.3839 8.54234 13.9537 8.61551C13.8999 8.61551 13.6131 8.70698 13.3084 8.79844Z" fill="#000"/>
<path d="M95.5178 16.2811C95.5178 24.2384 95.4819 24.5493 94.6573 25.2993C94.4601 25.4823 93.9582 25.7384 93.5459 25.8664L92.8109 26.0859L92.793 28.0067V29.9091L94.1554 29.8725C97.0953 29.7993 98.9776 28.153 99.6229 25.0981C99.7484 24.4762 99.8201 21.4396 99.8201 16.464V8.7811H97.6689H95.5178V16.2811Z" fill="#000"/>
<path d="M43.7115 15.475C43.7115 17.9445 43.6398 19.5543 43.5143 19.7921C43.4067 19.9933 42.9944 20.3043 42.5821 20.5055C41.8651 20.8348 41.2018 20.8531 29.0656 20.8531H16.3021L16.2483 18.4201L16.1945 16.0055L14.5811 15.9506C11.9639 15.8592 12.1969 15.4933 12.1252 19.7006C12.0714 23.0299 12.0356 23.3775 11.6591 24.0909C10.3146 26.6884 5.65379 26.4506 4.64991 23.725C4.52443 23.3957 4.45272 21.0726 4.45272 17.4506V11.7068H2.30156H0.150391V17.5421C0.150391 22.847 0.186243 23.4872 0.508918 24.5482C1.63828 28.2982 5.42074 30.4933 9.66929 29.8348C12.0894 29.4506 14.4377 27.8957 15.3699 26.0116L15.7463 25.2616L29.4062 25.2067C41.8471 25.1518 43.1737 25.1153 44.0162 24.8226C45.3966 24.347 46.6335 23.2677 47.243 22.0055L47.7449 20.9445L47.7987 16.225L47.8525 11.5238H45.7909H43.7115V15.475Z" fill="#000"/>
<path d="M78.6854 34.5375C77.4844 35.196 77.0721 36.7509 77.825 37.885C78.3448 38.6716 78.9005 38.9643 79.9044 38.9643C80.5677 38.9643 80.7828 38.8728 81.3744 38.2509C81.966 37.6472 82.0735 37.4277 82.0735 36.7509C82.0735 35.7265 81.5357 34.8119 80.729 34.4643C79.9044 34.1168 79.4204 34.1351 78.6854 34.5375Z" fill="#000"/>
<path d="M0.0605015 34.7914C0.00672239 34.9195 -0.011204 40.5902 0.00672239 47.3767L0.0605015 59.7243H2.21167H4.36283L4.41661 56.1938L4.45246 52.6816H7.48202H10.4937L12.7703 56.2487L15.0649 59.8157H17.6463C19.0625 59.8157 20.2277 59.7791 20.2277 59.7426C20.2277 59.6877 19.4389 58.4255 18.4709 56.9438C16.0329 53.1938 15.3876 52.1511 15.3876 51.9499C15.3876 51.8584 15.7282 51.6023 16.1405 51.3828C17.7359 50.5597 19.2417 48.4743 19.7795 46.3707C20.1201 45.0353 20.1201 42.2914 19.7974 41.0658C19.0087 38.0292 17.1802 35.9987 14.4195 35.0658C13.4156 34.7182 12.7703 34.6817 6.74704 34.6085C1.36913 34.5536 0.132207 34.5902 0.0605015 34.7914ZM12.5552 38.9621C13.5591 39.2548 14.6884 40.2243 15.1904 41.2487C15.5847 41.9987 15.6564 42.4012 15.6564 43.6268C15.6564 44.9072 15.5847 45.2182 15.1187 46.078C14.4733 47.267 13.5411 48.017 12.3221 48.2731C11.8381 48.3828 9.8483 48.4743 7.94811 48.4743H4.45246V43.6268V38.7792H8.18115C10.2248 38.7792 12.1967 38.8707 12.5552 38.9621Z" fill="#000"/>
<path d="M41.1113 34.793C41.0575 34.921 41.0396 40.5918 41.0575 47.3783L41.1113 59.7258L43.1728 59.7807L45.2523 59.8356L47.1704 57.1649C48.2101 55.7015 49.1602 54.5124 49.2499 54.5124C49.3395 54.5124 50.0028 55.3539 50.7198 56.3783C51.4369 57.421 52.2973 58.61 52.6379 59.0307L53.2295 59.8173H55.6496C56.9761 59.8173 58.0517 59.7807 58.0517 59.7441C58.0517 59.6527 55.0939 55.4454 52.9965 52.5368C52.2436 51.5125 51.8133 50.7442 51.903 50.6161C51.9747 50.4881 53.3908 48.5308 55.0401 46.2625C56.6893 43.9759 58.0517 42.0735 58.0517 42.0003C58.0517 41.9454 56.9403 41.8905 55.5958 41.8905L53.122 41.9088L49.2678 47.2686L45.4136 52.6283L45.324 43.6466L45.2343 34.6649L43.2087 34.6101C41.7029 34.5735 41.1651 34.6284 41.1113 34.793Z" fill="#000"/>
<path d="M27.7745 41.7259C25.4082 42.1283 23.0061 43.9027 21.8946 46.043C20.2992 49.0795 20.4426 53.36 22.2173 56.1771C23.7948 58.7015 26.2866 60.0002 29.5492 60.0002C31.3956 60.0002 32.5967 59.671 33.8336 58.8295L34.7479 58.1893V59.0124V59.8173H36.8094H38.8709V54.4576C38.8709 48.6222 38.7634 47.7808 37.8312 46.043C36.9886 44.4515 35.931 43.4271 34.3355 42.6222C32.274 41.5978 30.2125 41.3235 27.7745 41.7259ZM32.2023 46.0978C34.0129 47.0308 34.9271 49.0064 34.6761 51.4576C34.3714 54.549 32.2202 56.3966 29.3341 56.0856C26.6272 55.8112 25.0676 53.9088 25.0676 50.9271C25.0676 49.0247 25.4441 47.9088 26.4121 46.921C27.3263 45.9881 28.3661 45.5856 29.9257 45.5673C30.8937 45.5491 31.2881 45.6405 32.2023 46.0978Z" fill="#000"/>
<path d="M64.1471 41.8178C59.791 42.769 57.0482 46.7203 57.3888 51.4763C57.586 54.1105 58.5361 56.3056 60.1495 57.8056C61.9421 59.4885 63.8423 60.0922 66.7285 59.9641C68.7004 59.8544 69.7042 59.5251 70.744 58.647L71.3176 58.1349V58.9763V59.8361L73.4329 59.7812L75.5303 59.7263V54.4215C75.5303 48.5678 75.4586 48.0373 74.3113 45.8605C72.6083 42.5861 68.3418 40.8849 64.1471 41.8178ZM68.8617 46.08C70.5289 46.9032 71.4431 48.9154 71.2638 51.33C71.1383 52.9763 70.6902 54.0373 69.7401 54.9154C68.0012 56.5251 64.9717 56.5251 63.2328 54.9336C61.9959 53.7812 61.727 53.0678 61.727 50.8544C61.727 49.3178 61.7987 48.7873 62.0855 48.202C62.5695 47.1959 63.6093 46.1898 64.5235 45.8605C65.6887 45.4215 67.7682 45.5312 68.8617 46.08Z" fill="#000"/>
<path d="M89.5313 41.7259C88.4557 41.982 86.7706 42.9698 85.9102 43.8478C85.4799 44.2869 84.8704 45.2015 84.5478 45.8783L83.9562 47.1039L83.9024 53.4515L83.8486 59.8173H85.9281H87.9896V54.2746C87.9896 50.982 88.0613 48.4759 88.1868 48.0551C88.4378 47.1039 89.2803 46.1893 90.2304 45.8052C91.4315 45.3478 93.2779 45.4942 94.228 46.1527C95.5904 47.0673 95.5904 47.0856 95.698 53.7807L95.7876 59.7258L97.9029 59.7807L100 59.8356V54.0185C100 47.8722 99.9286 47.1771 99.1219 45.5856C98.2435 43.8296 96.3612 42.3113 94.3893 41.7808C93.3496 41.5064 90.6069 41.4698 89.5313 41.7259Z" fill="#000"/>
<path d="M77.6276 50.7996L77.6814 59.7264H79.743H81.8045L81.8583 50.7996L81.8941 41.8911H79.743H77.5918L77.6276 50.7996Z" fill="#000"/>
</svg>
