<svg width="40" height="38" viewBox="0 0 40 38" fill="none" xmlns="http://www.w3.org/2000/svg">
  <path d="M18.918 0.0273438C19.0301 -0.00936153 19.1505 -0.00942815 19.2627 0.0273438L37.7998 6.10742C38.0261 6.18175 38.1796 6.39303 38.1797 6.63184V10.3281C38.1796 10.6328 37.9326 10.8799 37.6279 10.8799C37.3232 10.8799 37.0763 10.6328 37.0762 10.3281V7.03223L19.0898 1.13379L1.10449 7.03223V18.3906L18.5381 24.1074V6.97266C18.5381 6.66792 18.7851 6.42091 19.0898 6.4209C19.3946 6.4209 19.6416 6.66791 19.6416 6.97266V24.1074L37.4561 18.2666C37.4644 18.2639 37.4731 18.2631 37.4814 18.2607C37.5013 18.2553 37.5213 18.2503 37.542 18.2471C37.56 18.2442 37.5778 18.2423 37.5957 18.2412C37.6062 18.2406 37.6172 18.2383 37.6279 18.2383C37.6351 18.2383 37.6423 18.24 37.6494 18.2402C37.6698 18.241 37.6899 18.243 37.71 18.2461C37.7258 18.2485 37.7414 18.2512 37.7568 18.2549C37.7755 18.2594 37.7935 18.266 37.8115 18.2725C37.8271 18.278 37.8425 18.2832 37.8574 18.29C37.8754 18.2983 37.8922 18.3083 37.9092 18.3184C37.9224 18.3263 37.9357 18.3338 37.9482 18.3428C37.9656 18.3552 37.9812 18.3694 37.9971 18.3838C38.0066 18.3925 38.0164 18.4008 38.0254 18.4102C38.0414 18.4268 38.0554 18.4451 38.0693 18.4639C38.0766 18.4736 38.0842 18.4829 38.0908 18.4932C38.1034 18.5127 38.1138 18.5333 38.124 18.5547C38.13 18.5672 38.1356 18.5798 38.1406 18.5928C38.1441 18.6016 38.1493 18.61 38.1523 18.6191C38.1563 18.6313 38.1571 18.6441 38.1602 18.6562C38.1634 18.6692 38.1666 18.682 38.1689 18.6953C38.1734 18.7202 38.1758 18.7447 38.1768 18.7695C38.177 18.7766 38.1797 18.7839 38.1797 18.791V30.6836C38.1797 30.9221 38.0261 31.1346 37.7998 31.209L19.2617 37.2881C19.2512 37.2915 19.2401 37.2922 19.2295 37.2949C19.2152 37.2987 19.2012 37.3031 19.1865 37.3057C19.1545 37.3114 19.1223 37.3164 19.0898 37.3164C19.057 37.3164 19.0246 37.3114 18.9922 37.3057C18.9775 37.303 18.9635 37.2987 18.9492 37.2949C18.9389 37.2922 18.9282 37.2914 18.918 37.2881L0.379883 31.209C0.143964 31.1313 -0.0111615 30.9059 0.000976562 30.6582C0.0123863 30.4101 0.188483 30.2003 0.430664 30.1455L9.14941 28.1729C9.44754 28.1044 9.74222 28.2925 9.80957 28.5898C9.87684 28.8871 9.69066 29.1825 9.39355 29.25L2.62207 30.7822L18.5381 36.001V25.2695L0.379883 19.3154C0.15358 19.2411 2.12446e-05 19.0298 0 18.791V6.63184C6.39043e-05 6.39304 0.153595 6.18176 0.379883 6.10742L18.918 0.0273438ZM19.6416 25.2695V36.001L37.0752 30.2842V19.5527L19.6416 25.2695ZM37.792 12.0498C39.0097 12.05 40 13.04 40 14.2578C40 15.4756 39.0097 16.4656 37.792 16.4658C36.5741 16.4658 35.583 15.4757 35.583 14.2578C35.583 13.0399 36.5741 12.0498 37.792 12.0498ZM37.792 13.1533C37.1832 13.1533 36.6875 13.6491 36.6875 14.2578C36.6875 14.8666 37.1832 15.3623 37.792 15.3623C38.4006 15.3621 38.8955 14.8664 38.8955 14.2578C38.8955 13.6492 38.401 13.1535 37.792 13.1533Z" fill="white"/>
  </svg>
  