<svg width="40" height="40" viewBox="0 0 40 40" fill="none" xmlns="http://www.w3.org/2000/svg">
  <path d="M30.9225 39.9999H0.543167C0.243339 39.9999 0 39.7603 0 39.465V9.49139C0 9.19616 0.243339 8.95654 0.543167 8.95654H30.9225C31.2223 8.95654 31.4657 9.19616 31.4657 9.49139V39.465C31.4657 39.7606 31.2223 39.9999 30.9225 39.9999ZM1.0867 38.9302H30.3797V10.0262H1.0867V38.9302Z" fill="white"/>
  <path d="M39.457 31.0433H9.07735C8.77752 31.0433 8.53418 30.8037 8.53418 30.5085V20.2105C8.53418 19.9153 8.77752 19.6757 9.07735 19.6757H16.8186C17.1184 19.6757 17.3617 19.9153 17.3617 20.2105C17.3617 20.5058 17.1184 20.7454 16.8186 20.7454H9.62051V29.9737H38.9139V1.0697H9.62051V9.49143C9.62051 9.78667 9.37717 10.0263 9.07735 10.0263C8.77752 10.0263 8.53418 9.78667 8.53418 9.49143V0.534849C8.53418 0.239612 8.77752 0 9.07735 0H39.457C39.7569 0 40.0002 0.239612 40.0002 0.534849V30.5089C40.0002 30.8037 39.7569 31.0433 39.457 31.0433Z" fill="white"/>
  <path d="M20.4804 21.9059C19.5324 21.9059 18.7607 21.145 18.7607 20.2101C18.7607 19.2752 19.5324 18.5146 20.4804 18.5146C21.4284 18.5146 22.2001 19.2752 22.2001 20.2101C22.2001 21.145 21.4284 21.9059 20.4804 21.9059ZM20.4804 19.5847C20.131 19.5847 19.8471 19.8653 19.8471 20.2105C19.8471 20.5556 20.131 20.8366 20.4804 20.8366C20.8298 20.8366 21.1137 20.5556 21.1137 20.2105C21.1137 19.8653 20.8298 19.5847 20.4804 19.5847Z" fill="white"/>
  </svg>
  