<svg width="40" height="40" viewBox="0 0 40 40" fill="none" xmlns="http://www.w3.org/2000/svg">
  <path d="M19.6685 0.129395C19.8411 -0.0429556 20.1209 -0.0430931 20.2935 0.129395L39.8706 19.7075C40.0431 19.8802 40.0432 20.1599 39.8706 20.3325L20.3325 39.8706C20.2498 39.9533 20.1369 40.0004 20.02 40.0005C19.9031 40.0005 19.7906 39.9534 19.7075 39.8706L0.129395 20.2935C-0.0430867 20.1209 -0.0429619 19.8411 0.129395 19.6685L19.6685 0.129395ZM1.06689 19.981L20.02 38.9331L38.9331 20.019L33.7085 14.7944L19.9712 28.5317C19.8846 28.6184 19.7708 28.6616 19.6577 28.6616C19.5446 28.6616 19.4315 28.618 19.3452 28.5317L12.6196 21.8062C12.447 21.6335 12.447 21.3538 12.6196 21.1812L17.5981 16.2017C17.7707 16.0292 18.0505 16.0293 18.2231 16.2017C18.3957 16.3743 18.3956 16.654 18.2231 16.8267L13.5571 21.4937L19.6577 27.5942L33.0825 14.1685L19.981 1.06689L1.06689 19.981ZM19.1958 13.0884C19.7859 12.4991 20.7454 12.5004 21.3354 13.0903C21.6214 13.376 21.7794 13.7559 21.7798 14.1597C21.7801 14.5641 21.6231 14.9445 21.3374 15.23C21.0426 15.5245 20.656 15.6722 20.269 15.6724C19.8815 15.6724 19.4932 15.5242 19.1978 15.229C18.6074 14.6386 18.6063 13.6782 19.1958 13.0884ZM20.2642 13.5308C20.1034 13.5308 19.943 13.5915 19.8208 13.7134C19.5761 13.9584 19.5765 14.3576 19.8218 14.603C20.0672 14.8487 20.467 14.8498 20.7124 14.605C20.8308 14.4866 20.8963 14.3285 20.896 14.1606C20.8957 13.9924 20.8295 13.8337 20.7104 13.7144C20.5871 13.5918 20.4254 13.5308 20.2642 13.5308Z" fill="white"/>
  </svg>  