<svg width="40" height="40" viewBox="0 0 40 40" fill="none" xmlns="http://www.w3.org/2000/svg">
  <path d="M39.5127 0C39.7815 0 40 0.202668 40 0.452148V23.7949C40 24.0444 39.7815 24.2471 39.5127 24.2471H26.2012C27.4796 28.4309 26.3552 33.1135 22.8242 36.3916C20.2324 38.7978 16.8245 40 13.4131 40C9.98425 39.9999 6.55067 38.7853 3.93555 36.3574C-0.636018 32.1136 -1.3037 25.4669 2.34766 20.5527C2.50013 20.347 2.80308 20.2949 3.02441 20.4365C3.2457 20.5781 3.3021 20.86 3.14941 21.0654C-0.23537 25.6206 0.384605 31.7831 4.62402 35.7188C9.46198 40.2097 17.3182 40.2245 22.1357 35.752C25.4786 32.6486 26.4938 28.188 25.1855 24.2471H14.3662C14.2367 24.247 14.1127 24.1985 14.0215 24.1133C13.9304 24.0281 13.8793 23.9131 13.8799 23.793L13.9258 15.7031C13.9264 15.5776 13.9835 15.4583 14.083 15.373C14.1829 15.2878 14.3175 15.2447 14.4512 15.2549C17.6196 15.4908 20.5024 16.7367 22.7871 18.8574C24.2016 20.1704 25.2343 21.7062 25.8838 23.3428H39.0264V0.904297H14.8535V7.42676C14.8535 7.67624 14.635 7.87891 14.3662 7.87891C14.0975 7.87885 13.8799 7.6762 13.8799 7.42676V0.452148C13.8799 0.202705 14.0975 5.99146e-05 14.3662 0H39.5127ZM14.8555 23.3428H24.8408C24.2342 21.9427 23.3197 20.6308 22.0986 19.4971C20.106 17.6474 17.6255 16.5157 14.8965 16.2051L14.8555 23.3428ZM14.4053 9.63477C15.4793 9.63477 16.3535 10.4454 16.3535 11.4424C16.3535 12.4394 15.4793 13.25 14.4053 13.25C13.3313 13.2499 12.458 12.4393 12.458 11.4424C12.4581 10.4455 13.3314 9.6349 14.4053 9.63477ZM14.4053 10.5381C13.8686 10.5382 13.4317 10.9441 13.4316 11.4424C13.4316 11.9407 13.8685 12.3465 14.4053 12.3467C14.9421 12.3467 15.3789 11.9407 15.3789 11.4424C15.3789 10.9441 14.9424 10.5381 14.4053 10.5381Z" fill="white"/>
  </svg>
  